<?xml version="1.0" encoding="UTF-8"?>
<!-- Generator: https://ezgif.com/png-to-svg -->
<svg version="1.1" xmlns="http://www.w3.org/2000/svg" width="257" height="261">
<path d="M0,0 L1,0 L1,2 L2,2 L2,14 L3,14 L3,23 L4,23 L4,30 L5,30 L5,36 L6,36 L6,41 L7,41 L7,46 L8,46 L8,50 L9,50 L9,55 L10,55 L10,58 L11,58 L11,62 L12,62 L12,65 L13,65 L13,69 L14,69 L14,72 L15,72 L15,75 L16,75 L16,78 L17,78 L17,80 L18,80 L18,83 L19,83 L19,85 L20,85 L20,88 L21,88 L21,90 L22,90 L22,92 L23,92 L23,95 L24,95 L24,97 L25,97 L25,99 L26,99 L26,101 L27,101 L27,103 L28,103 L28,105 L29,105 L29,107 L30,107 L30,108 L31,108 L31,110 L32,110 L32,112 L33,112 L33,114 L34,114 L34,115 L35,115 L35,117 L36,117 L36,118 L37,118 L37,120 L38,120 L38,121 L39,121 L39,123 L40,123 L40,124 L41,124 L41,126 L42,126 L42,127 L43,127 L43,129 L44,129 L44,130 L45,130 L45,131 L46,131 L46,133 L47,133 L47,134 L48,134 L48,135 L49,135 L49,136 L50,136 L50,137 L51,137 L51,139 L52,139 L52,140 L53,140 L53,141 L54,141 L54,142 L55,142 L55,143 L56,143 L56,144 L57,144 L57,145 L58,145 L58,146 L59,146 L59,148 L60,148 L60,149 L61,149 L61,150 L62,150 L62,151 L63,151 L63,152 L64,152 L64,153 L66,153 L66,154 L67,154 L67,155 L68,155 L68,156 L69,156 L69,157 L70,157 L70,158 L71,158 L71,159 L72,159 L72,160 L73,160 L73,161 L75,161 L75,162 L76,162 L76,163 L77,163 L77,164 L78,164 L78,165 L80,165 L80,166 L81,166 L81,167 L82,167 L82,168 L83,168 L83,169 L85,169 L85,170 L86,170 L86,171 L88,171 L88,172 L89,172 L89,173 L91,173 L91,174 L92,174 L92,175 L94,175 L94,176 L95,176 L95,177 L97,177 L97,178 L98,178 L98,179 L100,179 L100,180 L102,180 L102,181 L103,181 L103,182 L105,182 L105,183 L107,183 L107,184 L109,184 L109,185 L111,185 L111,186 L113,186 L113,187 L115,187 L115,188 L117,188 L117,189 L119,189 L119,190 L121,190 L121,191 L123,191 L123,192 L125,192 L125,193 L128,193 L128,194 L130,194 L130,195 L133,195 L133,196 L135,196 L135,197 L138,197 L138,198 L140,198 L140,199 L143,199 L143,200 L146,200 L146,201 L149,201 L149,202 L152,202 L152,203 L156,203 L156,204 L159,204 L159,205 L163,205 L163,206 L166,206 L166,207 L170,207 L170,208 L175,208 L175,209 L179,209 L179,210 L184,210 L184,211 L190,211 L190,212 L195,212 L195,213 L202,213 L202,214 L210,214 L210,215 L218,215 L218,216 L0,216 Z " fill="#F48220" transform="translate(0,1)"/>
<path d="M0,0 L8,0 L8,1 L13,1 L13,2 L16,2 L16,3 L19,3 L19,4 L24,4 L24,5 L27,5 L27,6 L29,6 L29,7 L31,7 L31,8 L32,8 L32,9 L33,9 L33,10 L35,10 L35,11 L36,11 L36,12 L37,12 L37,13 L38,13 L38,14 L39,14 L39,16 L40,16 L40,17 L41,17 L41,19 L42,19 L42,21 L43,21 L43,23 L44,23 L44,25 L45,25 L45,29 L46,29 L46,43 L45,43 L45,47 L44,47 L44,50 L43,50 L43,52 L42,52 L42,54 L41,54 L41,56 L40,56 L40,57 L39,57 L39,58 L38,58 L38,59 L37,59 L37,60 L36,60 L36,61 L35,61 L35,62 L34,62 L34,63 L33,63 L33,64 L32,64 L32,65 L30,65 L30,66 L28,66 L28,67 L26,67 L26,68 L23,68 L23,69 L1,69 L1,68 L-4,68 L-4,67 L-7,67 L-7,66 L-9,66 L-9,65 L-11,65 L-11,64 L-13,64 L-13,63 L-14,63 L-14,62 L-15,62 L-15,61 L-16,61 L-16,60 L-17,60 L-17,59 L-18,59 L-18,58 L-19,58 L-19,57 L-20,57 L-20,56 L-21,56 L-21,54 L-22,54 L-22,53 L-23,53 L-23,51 L-24,51 L-24,49 L-25,49 L-25,46 L-26,46 L-26,42 L-27,42 L-27,27 L-26,27 L-26,23 L-25,23 L-25,20 L-24,20 L-24,18 L-23,18 L-23,16 L-22,16 L-22,15 L-21,15 L-21,13 L-20,13 L-20,12 L-19,12 L-19,11 L-18,11 L-18,9 L-17,9 L-17,8 L-15,8 L-15,7 L-14,7 L-14,6 L-13,6 L-13,5 L-11,5 L-11,4 L-9,4 L-9,3 L-7,3 L-7,2 L-5,2 L-5,1 L0,1 Z " fill="#7A7B7E" transform="translate(67,0)"/>
<path d="M0,0 L10,0 L10,1 L12,1 L12,2 L15,2 L15,3 L17,3 L17,4 L18,4 L18,5 L19,5 L19,6 L20,6 L20,7 L21,7 L21,8 L22,8 L22,13 L23,13 L23,27 L22,27 L22,28 L21,28 L21,31 L20,31 L20,32 L19,32 L19,34 L18,34 L18,35 L17,35 L17,36 L16,36 L16,37 L15,37 L15,39 L13,39 L13,40 L12,40 L12,41 L-3,41 L-3,40 L-7,40 L-7,39 L-8,39 L-8,38 L-9,38 L-9,36 L-10,36 L-10,35 L-11,35 L-11,34 L-12,34 L-12,32 L-13,32 L-13,31 L-15,31 L-15,28 L-16,28 L-16,26 L-17,26 L-17,10 L-16,10 L-16,9 L-14,9 L-14,8 L-13,8 L-13,7 L-12,7 L-12,6 L-11,6 L-11,5 L-10,5 L-10,4 L-8,4 L-8,3 L-7,3 L-7,1 L0,1 Z " fill="#A5A7AA" transform="translate(78,16)"/>
<path d="M0,0 L1,0 L1,2 L2,2 L2,14 L3,14 L3,23 L4,23 L4,30 L5,30 L5,36 L6,36 L6,41 L7,41 L7,46 L8,46 L8,50 L9,50 L9,55 L10,55 L10,58 L11,58 L11,62 L12,62 L12,65 L13,65 L13,69 L14,69 L14,72 L15,72 L15,75 L16,75 L16,78 L17,78 L17,80 L18,80 L18,83 L19,83 L19,85 L20,85 L20,88 L21,88 L21,90 L22,90 L22,92 L23,92 L23,95 L24,95 L24,97 L25,97 L25,99 L26,99 L26,101 L27,101 L27,103 L28,103 L28,105 L29,105 L29,107 L30,107 L30,108 L31,108 L31,110 L32,110 L32,112 L33,112 L33,114 L34,114 L34,115 L35,115 L35,117 L36,117 L36,118 L37,118 L37,120 L38,120 L38,121 L39,121 L39,123 L40,123 L40,124 L41,124 L41,126 L42,126 L42,127 L43,127 L43,129 L44,129 L44,130 L45,130 L45,131 L46,131 L46,133 L47,133 L47,134 L48,134 L48,135 L49,135 L49,136 L50,136 L50,137 L51,137 L51,139 L52,139 L52,140 L53,140 L53,141 L54,141 L54,142 L55,142 L55,143 L56,143 L56,144 L57,144 L57,145 L58,145 L58,146 L59,146 L59,148 L60,148 L60,149 L61,149 L61,150 L62,150 L62,151 L63,151 L63,152 L64,152 L64,153 L66,153 L66,154 L67,154 L67,155 L68,155 L68,156 L69,156 L69,157 L70,157 L70,158 L71,158 L71,159 L72,159 L72,160 L73,160 L73,161 L75,161 L75,162 L76,162 L76,163 L77,163 L77,164 L78,164 L78,165 L80,165 L80,166 L81,166 L81,167 L82,167 L82,168 L83,168 L83,169 L85,169 L85,170 L86,170 L86,171 L88,171 L88,172 L89,172 L89,173 L91,173 L91,174 L92,174 L92,175 L94,175 L94,176 L95,176 L95,177 L97,177 L97,178 L98,178 L98,179 L100,179 L100,180 L102,180 L102,181 L103,181 L103,182 L105,182 L105,183 L107,183 L107,184 L109,184 L109,185 L111,185 L111,186 L113,186 L113,187 L115,187 L115,188 L117,188 L117,189 L119,189 L119,190 L121,190 L121,191 L123,191 L123,192 L125,192 L125,193 L128,193 L128,194 L130,194 L130,195 L133,195 L133,196 L135,196 L135,197 L138,197 L138,198 L140,198 L140,199 L143,199 L143,200 L146,200 L146,201 L149,201 L149,202 L152,202 L152,203 L156,203 L156,204 L159,204 L159,205 L163,205 L163,206 L166,206 L166,207 L170,207 L170,208 L175,208 L175,209 L179,209 L179,210 L184,210 L184,211 L190,211 L190,212 L195,212 L195,213 L202,213 L202,214 L210,214 L210,215 L218,215 L218,216 L0,216 Z M1,17 L1,215 L198,215 L198,214 L192,214 L192,213 L186,213 L186,212 L181,212 L181,211 L177,211 L177,210 L173,210 L173,209 L169,209 L169,208 L165,208 L165,207 L160,207 L160,206 L156,206 L156,205 L153,205 L153,204 L150,204 L150,203 L147,203 L147,202 L144,202 L144,201 L141,201 L141,200 L139,200 L139,199 L135,199 L135,198 L133,198 L133,197 L131,197 L131,196 L128,196 L128,195 L126,195 L126,194 L124,194 L124,193 L121,193 L121,192 L119,192 L119,191 L117,191 L117,190 L115,190 L115,189 L113,189 L113,188 L111,188 L111,187 L109,187 L109,186 L107,186 L107,185 L105,185 L105,184 L104,184 L104,183 L102,183 L102,182 L100,182 L100,181 L98,181 L98,180 L97,180 L97,179 L95,179 L95,178 L94,178 L94,177 L92,177 L92,176 L91,176 L91,175 L89,175 L89,174 L88,174 L88,173 L86,173 L86,172 L85,172 L85,171 L84,171 L84,170 L82,170 L82,169 L81,169 L81,168 L79,168 L79,167 L78,167 L78,166 L77,166 L77,165 L76,165 L76,164 L74,164 L74,163 L73,163 L73,162 L72,162 L72,161 L71,161 L71,160 L70,160 L70,159 L69,159 L69,158 L67,158 L67,157 L66,157 L66,156 L65,156 L65,155 L64,155 L64,154 L63,154 L63,153 L62,153 L62,152 L61,152 L61,151 L60,151 L60,150 L59,150 L59,149 L58,149 L58,148 L57,148 L57,147 L56,147 L56,146 L55,146 L55,145 L54,145 L54,143 L53,143 L53,142 L52,142 L52,141 L51,141 L51,140 L50,140 L50,139 L49,139 L49,138 L48,138 L48,136 L47,136 L47,135 L46,135 L46,134 L45,134 L45,133 L44,133 L44,131 L43,131 L43,130 L42,130 L42,129 L41,129 L41,127 L40,127 L40,126 L39,126 L39,124 L38,124 L38,123 L37,123 L37,121 L36,121 L36,120 L35,120 L35,118 L34,118 L34,117 L33,117 L33,115 L32,115 L32,113 L31,113 L31,111 L30,111 L30,110 L29,110 L29,108 L28,108 L28,106 L27,106 L27,104 L26,104 L26,102 L25,102 L25,100 L24,100 L24,98 L23,98 L23,96 L22,96 L22,94 L21,94 L21,92 L20,92 L20,90 L19,90 L19,87 L18,87 L18,84 L17,84 L17,82 L16,82 L16,79 L15,79 L15,77 L14,77 L14,73 L13,73 L13,70 L12,70 L12,67 L11,67 L11,64 L10,64 L10,60 L9,60 L9,56 L8,56 L8,52 L7,52 L7,48 L6,48 L6,44 L5,44 L5,38 L4,38 L4,32 L3,32 L3,25 L2,25 L2,17 Z " fill="#CE8B5A" transform="translate(0,1)"/>
<path d="M0,0 L8,0 L8,1 L13,1 L13,2 L16,2 L16,3 L17,3 L17,4 L7,4 L7,5 L4,5 L4,6 L2,6 L2,7 L0,7 L0,8 L-2,8 L-2,9 L-3,9 L-3,10 L-4,10 L-4,11 L-5,11 L-5,12 L-6,12 L-6,13 L-7,13 L-7,14 L-8,14 L-8,15 L-9,15 L-9,16 L-10,16 L-10,17 L-11,17 L-11,19 L-12,19 L-12,21 L-13,21 L-13,23 L-14,23 L-14,25 L-15,25 L-15,29 L-16,29 L-16,44 L-15,44 L-15,46 L-14,46 L-14,50 L-13,50 L-13,52 L-12,52 L-12,54 L-11,54 L-11,55 L-10,55 L-10,57 L-9,57 L-9,58 L-8,58 L-8,59 L-7,59 L-7,60 L-6,60 L-6,61 L-5,61 L-5,62 L-4,62 L-4,63 L-3,63 L-3,64 L-1,64 L-1,65 L1,65 L1,66 L3,66 L3,67 L5,67 L5,68 L7,68 L7,69 L1,69 L1,68 L-4,68 L-4,67 L-7,67 L-7,66 L-9,66 L-9,65 L-11,65 L-11,64 L-13,64 L-13,63 L-14,63 L-14,62 L-15,62 L-15,61 L-16,61 L-16,60 L-17,60 L-17,59 L-18,59 L-18,58 L-19,58 L-19,57 L-20,57 L-20,56 L-21,56 L-21,54 L-22,54 L-22,53 L-23,53 L-23,51 L-24,51 L-24,49 L-25,49 L-25,46 L-26,46 L-26,42 L-27,42 L-27,27 L-26,27 L-26,23 L-25,23 L-25,20 L-24,20 L-24,18 L-23,18 L-23,16 L-22,16 L-22,15 L-21,15 L-21,13 L-20,13 L-20,12 L-19,12 L-19,11 L-18,11 L-18,9 L-17,9 L-17,8 L-15,8 L-15,7 L-14,7 L-14,6 L-13,6 L-13,5 L-11,5 L-11,4 L-9,4 L-9,3 L-7,3 L-7,2 L-5,2 L-5,1 L0,1 Z " fill="#DFE0E1" transform="translate(67,0)"/>
<path d="M0,0 L2,0 L2,7 L3,7 L3,21 L4,21 L4,30 L5,30 L5,37 L6,37 L6,43 L7,43 L7,48 L8,48 L8,52 L9,52 L9,56 L10,56 L10,60 L11,60 L11,64 L12,64 L12,67 L13,67 L13,70 L14,70 L14,73 L15,73 L15,76 L16,76 L16,79 L17,79 L17,81 L18,81 L18,84 L19,84 L19,86 L20,86 L20,88 L21,88 L21,91 L22,91 L22,93 L23,93 L23,95 L24,95 L24,97 L25,97 L25,99 L26,99 L26,101 L27,101 L27,102 L28,102 L28,104 L29,104 L29,106 L30,106 L30,108 L31,108 L31,109 L32,109 L32,111 L33,111 L33,112 L34,112 L34,114 L35,114 L35,115 L36,115 L36,117 L37,117 L37,118 L38,118 L38,120 L39,120 L39,121 L40,121 L40,122 L41,122 L41,124 L42,124 L42,125 L43,125 L43,126 L44,126 L44,127 L45,127 L45,128 L46,128 L46,130 L47,130 L47,131 L48,131 L48,132 L49,132 L49,133 L50,133 L50,134 L51,134 L51,135 L52,135 L52,136 L53,136 L53,137 L54,137 L54,138 L55,138 L55,139 L56,139 L56,140 L57,140 L57,141 L58,141 L58,142 L59,142 L59,143 L60,143 L60,144 L61,144 L61,145 L62,145 L62,146 L63,146 L63,147 L64,147 L64,148 L65,148 L65,149 L67,149 L67,150 L68,150 L68,151 L69,151 L69,152 L70,152 L70,153 L72,153 L72,154 L73,154 L73,155 L74,155 L74,156 L76,156 L76,157 L77,157 L77,158 L78,158 L78,159 L80,159 L80,160 L81,160 L81,161 L83,161 L83,162 L84,162 L84,163 L86,163 L86,164 L88,164 L88,165 L89,165 L89,166 L91,166 L91,167 L93,167 L93,168 L94,168 L94,169 L96,169 L96,170 L98,170 L98,171 L100,171 L100,172 L102,172 L102,173 L104,173 L104,174 L106,174 L106,175 L108,175 L108,176 L110,176 L110,177 L112,177 L112,178 L114,178 L114,179 L117,179 L117,180 L119,180 L119,181 L122,181 L122,182 L124,182 L124,183 L127,183 L127,184 L130,184 L130,185 L133,185 L133,186 L136,186 L136,187 L139,187 L139,188 L142,188 L142,189 L145,189 L145,190 L149,190 L149,191 L153,191 L153,192 L157,192 L157,193 L161,193 L161,194 L165,194 L165,195 L170,195 L170,196 L175,196 L175,197 L181,197 L181,198 L187,198 L187,199 L194,199 L194,200 L198,200 L198,202 L193,202 L193,201 L186,201 L186,200 L180,200 L180,199 L174,199 L174,198 L169,198 L169,197 L164,197 L164,196 L160,196 L160,195 L156,195 L156,194 L152,194 L152,193 L148,193 L148,192 L144,192 L144,191 L141,191 L141,190 L138,190 L138,189 L135,189 L135,188 L132,188 L132,187 L129,187 L129,186 L126,186 L126,185 L123,185 L123,184 L121,184 L121,183 L118,183 L118,182 L116,182 L116,181 L113,181 L113,180 L111,180 L111,179 L109,179 L109,178 L107,178 L107,177 L105,177 L105,176 L103,176 L103,175 L101,175 L101,174 L99,174 L99,173 L97,173 L97,172 L95,172 L95,171 L93,171 L93,170 L91,170 L91,169 L90,169 L90,168 L88,168 L88,167 L86,167 L86,166 L85,166 L85,165 L83,165 L83,164 L82,164 L82,163 L80,163 L80,162 L79,162 L79,161 L77,161 L77,160 L76,160 L76,159 L74,159 L74,158 L73,158 L73,157 L72,157 L72,156 L70,156 L70,155 L69,155 L69,154 L68,154 L68,153 L67,153 L67,152 L65,152 L65,151 L64,151 L64,150 L63,150 L63,149 L62,149 L62,148 L61,148 L61,147 L60,147 L60,146 L59,146 L59,145 L57,145 L57,144 L56,144 L56,143 L55,143 L55,142 L54,142 L54,141 L53,141 L53,140 L52,140 L52,139 L51,139 L51,138 L50,138 L50,137 L49,137 L49,135 L48,135 L48,134 L47,134 L47,133 L46,133 L46,132 L45,132 L45,131 L44,131 L44,130 L43,130 L43,129 L42,129 L42,127 L41,127 L41,126 L40,126 L40,125 L39,125 L39,123 L38,123 L38,122 L37,122 L37,121 L36,121 L36,119 L35,119 L35,118 L34,118 L34,117 L33,117 L33,115 L32,115 L32,114 L31,114 L31,112 L30,112 L30,110 L29,110 L29,109 L28,109 L28,107 L27,107 L27,105 L26,105 L26,104 L25,104 L25,102 L24,102 L24,100 L23,100 L23,98 L22,98 L22,96 L21,96 L21,94 L20,94 L20,92 L19,92 L19,90 L18,90 L18,87 L17,87 L17,85 L16,85 L16,83 L15,83 L15,80 L14,80 L14,77 L13,77 L13,75 L12,75 L12,72 L11,72 L11,68 L10,68 L10,65 L9,65 L9,62 L8,62 L8,58 L7,58 L7,54 L6,54 L6,49 L5,49 L5,44 L4,44 L4,38 L3,38 L3,31 L2,31 L2,23 L1,23 L1,8 L0,8 Z " fill="#FFFFFF" transform="translate(15,0)"/>
<path d="M0,0 L22,0 L22,1 L24,1 L24,2 L25,2 L25,4 L26,4 L26,7 L27,7 L27,10 L26,10 L26,14 L25,14 L25,15 L24,15 L24,16 L23,16 L23,17 L21,17 L21,18 L23,18 L23,20 L24,20 L24,21 L25,21 L25,23 L26,23 L26,25 L27,25 L27,27 L28,27 L28,29 L29,29 L29,31 L18,31 L18,30 L17,30 L17,28 L16,28 L16,26 L15,26 L15,24 L14,24 L14,22 L13,22 L13,20 L12,20 L12,19 L10,19 L10,31 L0,31 Z M10,7 L10,12 L16,12 L16,10 L17,10 L17,8 L16,8 L16,7 Z " fill="#FFFFFF" transform="translate(63,230)"/>
<path d="M0,0 L24,0 L24,7 L9,7 L9,11 L23,11 L23,18 L9,18 L9,23 L24,23 L24,31 L0,31 Z " fill="#FFFFFF" transform="translate(35,230)"/>
<path d="M0,0 L7,0 L7,1 L10,1 L10,2 L12,2 L12,3 L15,3 L15,4 L17,4 L17,5 L19,5 L19,6 L20,6 L20,7 L21,7 L21,8 L22,8 L22,9 L23,9 L23,10 L24,10 L24,11 L25,11 L25,13 L26,13 L26,16 L27,16 L27,19 L28,19 L28,31 L27,31 L27,33 L26,33 L26,36 L25,36 L25,38 L24,38 L24,40 L23,40 L23,41 L22,41 L22,42 L21,42 L21,43 L20,43 L20,44 L17,44 L17,45 L16,45 L16,46 L15,46 L15,47 L13,47 L13,49 L10,49 L10,50 L-3,50 L-3,49 L-5,49 L-5,48 L-7,48 L-7,47 L-10,47 L-10,46 L-11,46 L-11,45 L-12,45 L-12,44 L-13,44 L-13,43 L-14,43 L-14,42 L-15,42 L-15,41 L-16,41 L-16,40 L-17,40 L-17,38 L-18,38 L-18,37 L-19,37 L-19,34 L-20,34 L-20,30 L-21,30 L-21,18 L-20,18 L-20,15 L-19,15 L-19,14 L-18,14 L-18,13 L-17,13 L-17,12 L-16,12 L-16,10 L-15,10 L-15,9 L-14,9 L-14,8 L-13,8 L-13,7 L-12,7 L-12,5 L-11,5 L-11,4 L-10,4 L-10,3 L-9,3 L-9,2 L-3,2 L-3,1 L0,1 Z M0,4 L0,5 L-7,5 L-7,7 L-8,7 L-8,8 L-10,8 L-10,9 L-11,9 L-11,10 L-12,10 L-12,11 L-13,11 L-13,12 L-14,12 L-14,13 L-16,13 L-16,14 L-17,14 L-17,30 L-16,30 L-16,32 L-15,32 L-15,35 L-13,35 L-13,36 L-12,36 L-12,38 L-11,38 L-11,39 L-10,39 L-10,40 L-9,40 L-9,42 L-8,42 L-8,43 L-7,43 L-7,44 L-3,44 L-3,45 L12,45 L12,44 L13,44 L13,43 L15,43 L15,41 L16,41 L16,40 L17,40 L17,39 L18,39 L18,38 L19,38 L19,36 L20,36 L20,35 L21,35 L21,32 L22,32 L22,31 L23,31 L23,17 L22,17 L22,12 L21,12 L21,11 L20,11 L20,10 L19,10 L19,9 L18,9 L18,8 L17,8 L17,7 L15,7 L15,6 L12,6 L12,5 L10,5 L10,4 Z " fill="#919396" transform="translate(78,12)"/>
<path d="M0,0 L20,0 L20,1 L22,1 L22,2 L23,2 L23,3 L24,3 L24,5 L25,5 L25,14 L24,14 L24,16 L23,16 L23,17 L22,17 L22,18 L21,18 L21,19 L19,19 L19,20 L10,20 L10,31 L0,31 Z M10,7 L10,13 L13,13 L13,12 L15,12 L15,11 L16,11 L16,9 L15,9 L15,8 L14,8 L14,7 Z " fill="#FFFFFF" transform="translate(6,230)"/>
<path d="M0,0 L9,0 L9,1 L12,1 L12,2 L13,2 L13,4 L14,4 L14,5 L16,5 L16,6 L17,6 L17,9 L18,9 L18,18 L17,18 L17,19 L15,19 L15,20 L14,20 L14,21 L13,21 L13,22 L12,22 L12,23 L9,23 L9,24 L3,24 L3,23 L0,23 L0,22 L-1,22 L-1,21 L-3,21 L-3,19 L-4,19 L-4,18 L-5,18 L-5,17 L-6,17 L-6,6 L-5,6 L-5,5 L-4,5 L-4,4 L-3,4 L-3,3 L-2,3 L-2,2 L-1,2 L-1,1 L0,1 Z " fill="#CDCED0" transform="translate(76,24)"/>
<path d="M0,0 L22,0 L22,7 L9,7 L9,12 L20,12 L20,19 L9,19 L9,31 L0,31 Z " fill="#FFFFFF" transform="translate(94,230)"/>
<path d="M0,0 L10,0 L10,23 L23,23 L23,31 L0,31 Z " fill="#FFFFFF" transform="translate(135,230)"/>
<path d="M0,0 L5,0 L5,2 L6,2 L6,4 L7,4 L7,6 L8,6 L8,7 L9,7 L9,9 L10,9 L10,11 L11,11 L11,13 L12,13 L12,15 L13,15 L13,17 L14,17 L14,19 L15,19 L15,21 L16,21 L16,0 L20,0 L20,31 L15,31 L15,29 L14,29 L14,27 L13,27 L13,25 L12,25 L12,23 L11,23 L11,21 L10,21 L10,19 L9,19 L9,17 L8,17 L8,15 L7,15 L7,13 L6,13 L6,11 L5,11 L5,10 L4,10 L4,31 L0,31 Z " fill="#FFFFFF" transform="translate(187,230)"/>
<path d="M0,0 L10,0 L10,31 L0,31 Z " fill="#FFFFFF" transform="translate(120,230)"/>
<path d="M0,0 L10,0 L10,1 L14,1 L14,2 L15,2 L15,3 L16,3 L16,4 L17,4 L17,5 L18,5 L18,6 L19,6 L19,8 L20,8 L20,11 L22,11 L22,18 L21,18 L21,21 L20,21 L20,23 L19,23 L19,24 L18,24 L18,25 L17,25 L17,26 L16,26 L16,27 L15,27 L15,29 L13,29 L13,30 L11,30 L11,31 L-1,31 L-1,30 L-2,30 L-2,29 L-3,29 L-3,27 L-5,27 L-5,25 L-6,25 L-6,24 L-7,24 L-7,23 L-8,23 L-8,22 L-9,22 L-9,9 L-8,9 L-8,8 L-7,8 L-7,7 L-6,7 L-6,6 L-5,6 L-5,5 L-4,5 L-4,4 L-3,4 L-3,3 L-2,3 L-2,2 L-1,2 L-1,1 L0,1 Z M0,2 L0,3 L-1,3 L-1,4 L-2,4 L-2,5 L-3,5 L-3,6 L-4,6 L-4,7 L-5,7 L-5,8 L-6,8 L-6,19 L-5,19 L-5,20 L-4,20 L-4,21 L-3,21 L-3,23 L-1,23 L-1,24 L0,24 L0,25 L3,25 L3,26 L9,26 L9,25 L12,25 L12,24 L13,24 L13,23 L14,23 L14,22 L15,22 L15,21 L17,21 L17,20 L18,20 L18,11 L17,11 L17,8 L16,8 L16,7 L14,7 L14,6 L13,6 L13,4 L12,4 L12,3 L9,3 L9,2 Z " fill="#B9BABD" transform="translate(76,22)"/>
<path d="M0,0 L18,0 L18,4 L4,4 L4,13 L17,13 L17,17 L4,17 L4,27 L19,27 L19,31 L0,31 Z " fill="#FFFFFF" transform="translate(211,230)"/>
<path d="M0,0 L8,0 L8,1 L11,1 L11,2 L12,2 L12,3 L13,3 L13,4 L14,4 L14,5 L15,5 L15,7 L16,7 L16,9 L17,9 L17,17 L16,17 L16,19 L15,19 L15,21 L14,21 L14,22 L13,22 L13,23 L12,23 L12,24 L10,24 L10,25 L6,25 L6,26 L2,26 L2,25 L-1,25 L-1,24 L-3,24 L-3,23 L-5,23 L-5,22 L-6,22 L-6,20 L-7,20 L-7,19 L-8,19 L-8,15 L-9,15 L-9,10 L-8,10 L-8,7 L-7,7 L-7,5 L-6,5 L-6,4 L-5,4 L-5,3 L-4,3 L-4,2 L-2,2 L-2,1 L0,1 Z M2,3 L2,4 L-1,4 L-1,5 L-2,5 L-2,6 L-3,6 L-3,7 L-4,7 L-4,9 L-5,9 L-5,12 L-6,12 L-6,14 L-5,14 L-5,17 L-4,17 L-4,19 L-3,19 L-3,20 L-2,20 L-2,21 L0,21 L0,22 L3,22 L3,23 L5,23 L5,22 L8,22 L8,21 L10,21 L10,20 L11,20 L11,19 L12,19 L12,18 L13,18 L13,15 L14,15 L14,10 L13,10 L13,8 L12,8 L12,7 L11,7 L11,6 L10,6 L10,5 L9,5 L9,4 L7,4 L7,3 Z " fill="#FFFFFF" transform="translate(240,194)"/>
<path d="M0,0 L4,0 L4,27 L16,27 L16,31 L0,31 Z " fill="#FFFFFF" transform="translate(160,230)"/>
<path d="M0,0 L6,0 L6,1 L7,1 L7,3 L8,3 L8,4 L9,4 L9,12 L8,12 L8,13 L7,13 L7,14 L0,14 L0,13 L-2,13 L-2,12 L-3,12 L-3,11 L-4,11 L-4,4 L-3,4 L-3,3 L-2,3 L-2,2 L-1,2 L-1,1 L0,1 Z " fill="#E6E6E7" transform="translate(79,29)"/>
<path d="M0,0 L4,0 L4,31 L0,31 Z " fill="#FFFFFF" transform="translate(179,230)"/>
<path d="M0,0 L10,0 L10,1 L11,1 L11,7 L10,7 L10,8 L9,8 L9,9 L10,9 L10,10 L11,10 L11,12 L12,12 L12,14 L8,14 L8,12 L7,12 L7,10 L6,10 L6,9 L4,9 L4,8 L3,8 L3,14 L0,14 Z M3,3 L3,6 L7,6 L7,5 L8,5 L8,3 Z " fill="#FFFFFF" transform="translate(238,200)"/>
</svg>
